<svg aria-hidden="true" style="position:absolute;width:0;height:0" xmlns="http://www.w3.org/2000/svg" overflow="hidden"><defs><symbol id="settings" viewBox="0 0 32 32"><path d="M17.004 32h-2.008a2.95 2.95 0 01-2.946-2.946v-.679a12.71 12.71 0 01-2.146-.901l.069.034.071.034-.482.482c-.533.533-1.27.863-2.083.863s-1.55-.33-2.083-.863l-1.419-1.419c-.533-.533-.863-1.27-.863-2.084s.33-1.55.863-2.084l.481-.481a11.877 11.877 0 01-.782-1.828l-.025-.087-.026-.091h-.679A2.95 2.95 0 010 17.004v-2.008a2.95 2.95 0 012.946-2.946h.679c.252-.78.534-1.444.867-2.077l-.034.071-.482-.481c-.533-.533-.863-1.27-.863-2.083s.33-1.55.863-2.083l1.42-1.42c.533-.533 1.27-.863 2.083-.863s1.55.33 2.084.863l.481.481c.537-.289 1.17-.562 1.828-.782l.087-.025.091-.026v-.679A2.95 2.95 0 0114.996 0h2.008a2.95 2.95 0 012.946 2.946v.679c.78.252 1.444.534 2.077.867l-.071-.034.482-.482c.533-.533 1.27-.863 2.084-.863s1.55.33 2.084.863l1.419 1.419c.533.533.863 1.27.863 2.083s-.33 1.55-.863 2.083l-.481.481c.299.562.581 1.226.807 1.915l.026.091h.679a2.95 2.95 0 012.946 2.946v2.008a2.95 2.95 0 01-2.946 2.946h-.679c-.252.78-.534 1.444-.867 2.077l.034-.071.482.482c.533.533.863 1.27.863 2.084s-.33 1.55-.863 2.084l-1.42 1.419c-.533.533-1.269.863-2.083.863s-1.55-.33-2.083-.863l-.481-.481c-.562.299-1.226.581-1.915.807l-.091.026v.679A2.95 2.95 0 0117.007 32zm-6.647-6.427c.824.497 1.777.904 2.787 1.172l.077.017a.94.94 0 01.703.908v1.384c0 .59.48 1.071 1.071 1.071h2.008c.59 0 1.071-.48 1.071-1.071V27.67c0-.434.296-.8.697-.906l.007-.001a10.992 10.992 0 002.964-1.245l-.049.028-.05.028a.93.93 0 011.14.144l.98.981a1.066 1.066 0 001.514 0l1.42-1.42a1.066 1.066 0 000-1.514l-.981-.981a.933.933 0 01-.14-1.149l-.002.004-.002.004c.497-.824.904-1.777 1.172-2.787l.017-.077a.94.94 0 01.908-.703h1.384c.59 0 1.071-.48 1.071-1.071v-2.008c0-.59-.48-1.071-1.071-1.071h-1.384a.938.938 0 01-.904-.69l-.002-.007-.001-.007a10.992 10.992 0 00-1.245-2.964l.028.049.028.05a.93.93 0 01.144-1.14l.981-.981a1.066 1.066 0 000-1.514l-1.42-1.42a1.066 1.066 0 00-1.514 0l-.981.981a.933.933 0 01-1.149.14l.004.002.004.002a10.581 10.581 0 00-2.711-1.155l-.076-.017-.077-.017a.94.94 0 01-.703-.908V2.946c0-.59-.48-1.071-1.071-1.071h-2.008c-.59 0-1.071.48-1.071 1.071V4.33c0 .434-.296.8-.697.906l-.007.001c-1.087.285-2.04.692-2.915 1.217l.05-.028a.93.93 0 01-1.14-.144l-.98-.981a1.066 1.066 0 00-1.514 0l-1.42 1.42a1.066 1.066 0 000 1.514l.981.981a.933.933 0 01.14 1.149l.002-.004.002-.004a10.581 10.581 0 00-1.155 2.711l-.017.076-.017.077a.94.94 0 01-.908.703H2.946c-.59 0-1.071.48-1.071 1.071v2.008c0 .59.48 1.071 1.071 1.071H4.33c.434 0 .8.296.906.697l.001.007c.285 1.087.692 2.04 1.217 2.915l-.028-.05a.93.93 0 01-.144 1.14l-.981.981a1.066 1.066 0 000 1.514l1.42 1.42a1.066 1.066 0 001.514 0l.981-.981c.223-.223.687-.412 1.14-.144z"/><path d="M16 22.962c-3.839 0-6.963-3.123-6.963-6.963S12.16 9.036 16 9.036s6.962 3.123 6.962 6.963-3.123 6.963-6.963 6.963zm0-12.05c-2.805 0-5.088 2.282-5.088 5.088s2.282 5.087 5.088 5.087 5.087-2.282 5.087-5.088-2.282-5.088-5.088-5.088z"/></symbol><symbol id="safe" viewBox="0 0 32 32"><path d="M27.313 0H4.688A4.693 4.693 0 000 4.688v20.75a4.693 4.693 0 004.688 4.688v1.875h3.75v-1.875h15.125v1.875h3.75v-1.875a4.693 4.693 0 004.688-4.688V4.688A4.693 4.693 0 0027.313 0zm2.812 25.438a2.816 2.816 0 01-2.813 2.813H4.687a2.816 2.816 0 01-2.813-2.813V4.688a2.816 2.816 0 012.813-2.813h22.625a2.816 2.816 0 012.813 2.813v20.75z"/><path d="M3.75 3.75v22.625h24.5V3.75H3.75zM26.375 24.5H5.625V5.625h20.75V24.5z"/><path d="M19.5 13.813c-.689 0-1.25.561-1.25 1.25s.561 1.25 1.25 1.25 1.25-.561 1.25-1.25-.561-1.25-1.25-1.25z"/><path d="M19.5 10.063c-2.757 0-5 2.243-5 5s2.243 5 5 5 5-2.243 5-5-2.243-5-5-5zm0 8.125c-1.723 0-3.125-1.402-3.125-3.125s1.402-3.125 3.125-3.125 3.125 1.402 3.125 3.125-1.402 3.125-3.125 3.125zM8.813 8.5h1.875v13.125H8.813z"/></symbol><symbol id="phone" viewBox="0 0 32 32"><path d="M29.432 21.004c-1.959 0-3.883-.306-5.706-.909-.909-.31-1.944-.069-2.537.535l-3.598 2.716c-4.173-2.227-6.743-4.797-8.94-8.938l2.636-3.504a2.578 2.578 0 00.631-2.64l.005.018c-.578-1.698-.912-3.654-.912-5.688v-.029.001A2.57 2.57 0 008.443-.002H2.566A2.57 2.57 0 00-.002 2.566c0 16.229 13.203 29.432 29.432 29.432a2.57 2.57 0 002.568-2.568v-5.86a2.57 2.57 0 00-2.568-2.568zm.79 8.428a.79.79 0 01-.79.79c-15.249 0-27.654-12.405-27.654-27.654a.79.79 0 01.79-.79h5.877a.79.79 0 01.79.79c0 2.15.338 4.26.998 6.26.092.295.017.601-.281.912l-3.056 4.047a.876.876 0 00-.079.947l-.002-.005-.002-.005c2.494 4.902 5.524 7.932 10.461 10.462.3.157.668.124.941-.082l4.14-3.136a.78.78 0 01.816-.184l-.006-.002-.006-.002c1.864.635 4.011 1.002 6.245 1.002h.03-.002a.79.79 0 01.79.79v5.86z"/></symbol><symbol id="mail" viewBox="0 0 32 32"><path d="M29 4H3C1.346 4 0 5.346 0 7v18c0 1.654 1.346 3 3 3h26c1.654 0 3-1.346 3-3V7c0-1.654-1.346-3-3-3zm0 2c.136 0 .265.028.383.077L16 17.676 2.617 6.077A.95.95 0 012.996 6H3zm0 20H3a1 1 0 01-1-1V8.19l13.345 11.565a.994.994 0 001.311-.001l-.001.001L30 8.19V25a1 1 0 01-1 1z"/></symbol><symbol id="heart" viewBox="0 0 32 32"><path d="M16 30.22c-.456 0-.895-.165-1.237-.465-.742-.657-1.926-1.68-3.117-2.695l-.528-.44c-3.224-2.747-6.008-5.12-7.945-7.457-2.165-2.613-3.174-5.09-3.174-7.796 0-2.629.902-5.055 2.539-6.831C4.195 2.739 6.467 1.75 8.939 1.75c1.847 0 3.539.584 5.028 1.736a10.398 10.398 0 012.012 2.092l.021.03c.6-.83 1.281-1.541 2.033-2.123 1.489-1.152 3.181-1.736 5.028-1.736 2.471 0 4.744.99 6.401 2.786C31.099 6.311 32 8.736 32 11.366c0 2.706-1.008 5.184-3.174 7.796-1.937 2.337-4.721 4.71-7.944 7.457-1.102.939-2.35 2.002-3.645 3.136-.327.288-.76.464-1.233.464H16zM8.939 3.624c-1.942 0-3.725.775-5.023 2.182-1.317 1.428-2.042 3.403-2.042 5.56 0 2.276.846 4.312 2.743 6.6 1.833 2.212 4.56 4.536 7.717 7.227l.006.005c1.104.941 2.355 2.007 3.657 3.146.675-.598 1.869-1.628 3.069-2.651l.6-.5c3.157-2.691 5.884-5.014 7.717-7.226 1.896-2.289 2.742-4.324 2.742-6.6 0-2.157-.725-4.132-2.042-5.56-1.297-1.407-3.081-2.182-5.023-2.182-1.422 0-2.728.452-3.881 1.344-1.028.795-1.743 1.8-2.163 2.503-.216.362-.596.577-1.016.577s-.801-.216-1.016-.577c-.419-.703-1.135-1.708-2.163-2.503-1.153-.892-2.459-1.344-3.881-1.344z"/></symbol><symbol id="globe" viewBox="0 0 32 32"><path d="M16 0C7.178 0 0 7.178 0 16s7.178 16 16 16 16-7.178 16-16S24.822 0 16 0zm-.937 7.854a21.915 21.915 0 01-4.336-.619l.15.031c.215-.51.449-1 .701-1.465 1.034-1.905 2.303-3.241 3.485-3.726zm0 1.876v5.332H9.207a23.53 23.53 0 011.069-6.194l-.045.167c1.427.374 3.083.623 4.786.693l.046.002zm0 7.208v5.332a23.93 23.93 0 00-4.997.73l.165-.036c-.57-1.785-.938-3.847-1.023-5.982l-.001-.045zm0 7.208v5.778c-1.183-.484-2.452-1.821-3.485-3.726a14.811 14.811 0 01-.66-1.358l-.041-.107a21.111 21.111 0 014.139-.586l.047-.002zm1.875 0c1.426.061 2.838.262 4.186.588-.215.51-.449 1-.701 1.465-1.034 1.905-2.303 3.241-3.485 3.726zm0-1.876v-5.332h5.856a23.53 23.53 0 01-1.069 6.194l.045-.167a22.87 22.87 0 00-4.785-.692l-.047-.002zm0-7.207V9.731a23.92 23.92 0 004.997-.73l-.165.036c.57 1.785.938 3.847 1.023 5.982l.001.045zm0-7.209V2.076c1.183.484 2.452 1.821 3.485 3.726.252.464.486.954.701 1.465-1.348.326-2.76.526-4.186.588zm5.133-2.947a14.438 14.438 0 00-1.537-2.305l.02.026c1.94.675 3.606 1.69 5.009 2.987l-.009-.009c-.814.436-1.692.815-2.615 1.132a18.287 18.287 0 00-.918-1.93l.05.099zm-12.142 0a17.181 17.181 0 00-.821 1.705l-.047.126a17.469 17.469 0 01-2.709-1.179l.094.047a14.13 14.13 0 014.901-2.948l.099-.03a14.16 14.16 0 00-1.48 2.204l-.037.075zM8.427 8.5c-.622 1.947-1.017 4.193-1.096 6.52l-.001.042H1.907a14.033 14.033 0 013.224-8.075l-.018.023a18.54 18.54 0 003.179 1.449l.135.041zM7.33 16.938c.08 2.369.475 4.615 1.145 6.74l-.048-.178a19.124 19.124 0 00-3.407 1.539l.093-.049a13.978 13.978 0 01-3.204-8.009l-.002-.043zm1.731 8.324c.262.636.552 1.248.868 1.831.47.865.979 1.628 1.517 2.279a14.17 14.17 0 01-5.01-2.987l.01.009a16.85 16.85 0 012.49-1.094l.125-.038zm13.01 1.831c.316-.583.606-1.195.868-1.831.923.317 1.801.696 2.615 1.132a14.13 14.13 0 01-4.901 2.948l-.099.03a14.16 14.16 0 001.48-2.204l.037-.075zm1.502-3.593c.622-1.947 1.017-4.193 1.096-6.52l.001-.042h5.423a14.033 14.033 0 01-3.224 8.075l.018-.023a18.617 18.617 0 00-3.179-1.449l-.135-.041zm1.097-8.437a25.137 25.137 0 00-1.145-6.74l.048.178a19.124 19.124 0 003.407-1.539l-.093.049a13.978 13.978 0 013.204 8.009l.002.043z"/></symbol><symbol id="forward" viewBox="0 0 32 32"><path d="M31.622 14.772c-.079-.118-.158-.237-.276-.315a1.994 1.994 0 00-.309-.272l-.006-.004-12.656-8.714c-.513-.355-1.065-.434-1.617-.355-.552.118-1.065.394-1.38.907-.118.197-.237.394-.276.591-.039.158-.079.315-.079.473v6.387L3.352 5.466c-.513-.355-1.065-.434-1.617-.355-.552.118-1.065.394-1.38.907-.118.197-.237.394-.276.591C.04 6.767 0 6.924 0 7.082v17.664c0 .591.237 1.143.631 1.538s.946.631 1.538.631c.237 0 .513-.039.71-.118l12.144-8.28v6.23c0 .591.237 1.143.631 1.538s.946.631 1.538.631c.237 0 .513-.039.71-.118.237-.079.434-.197.591-.355l12.578-8.674c.513-.355.789-.867.907-1.38a2.338 2.338 0 00-.36-1.626l.005.009zm-16.758 1.301L2.247 24.787c-.039 0-.039.039-.079.039h-.079c-.039 0-.079 0-.079-.039-.039-.039-.039-.039-.039-.079V7.162c0-.039.039-.039.079-.039h.079l12.656 8.753c0 .039.039.079 0 .079.118.079.079.118.079.118zm15.023 0l-12.578 8.714c-.039 0-.039.039-.079.039h-.079c-.039 0-.079 0-.079-.039-.039-.039-.039-.039-.039-.079V7.162c0-.039.039-.039.079-.039h.079l6.348 4.377 6.309 4.377c0 .039.039.079 0 .079.079.079.079.118.039.118z"/></symbol><symbol id="compass" viewBox="0 0 32 32"><path d="M14.259 16.641l-3.483 6.963 6.966-3.48 3.482-6.964-6.964 3.482zm2.565 2.564l-3.294 1.646 1.647-3.293 3.294-1.646-1.647 3.293z"/><path d="M16 8.618c-5.435 0-9.84 4.406-9.84 9.84s4.406 9.84 9.84 9.84 9.84-4.406 9.84-9.84c0-5.435-4.406-9.84-9.84-9.84zm0 18.449c-4.747 0-8.609-3.862-8.609-8.609S11.253 9.849 16 9.849s8.609 3.862 8.609 8.609-3.862 8.609-8.609 8.609z"/><path d="M18.279 5.123a3.022 3.022 0 00.799-2.045 3.078 3.078 0 10-6.156 0c0 .79.308 1.502.799 2.045C7.329 6.208 2.458 11.757 2.458 18.458 2.458 25.937 8.521 32 16 32s13.542-6.063 13.542-13.542c0-6.701-4.871-12.251-11.263-13.335zM16 1.231a1.85 1.85 0 011.847 1.847c0 1-.799 1.811-1.791 1.841l-.055-.002-.055.002a1.846 1.846 0 01-1.791-1.841 1.85 1.85 0 011.847-1.847zm0 29.538c-6.788 0-12.311-5.523-12.311-12.311S9.212 6.147 16 6.147s12.311 5.523 12.311 12.311S22.788 30.769 16 30.769z"/></symbol><symbol id="clock" viewBox="0 0 32 32"><path d="M16 32C7.177 32 0 24.823 0 16S7.177 0 16 0s16 7.177 16 16-7.177 16-16 16zm0-30C8.28 2 2 8.28 2 16s6.28 14 14 14 14-6.28 14-14S23.72 2 16 2z"/><path d="M23 24.667h-.004a.983.983 0 01-.702-.293l-7-7a.993.993 0 01-.293-.706V7.334a1 1 0 012 0v8.919l6.707 6.707a.998.998 0 01-.704 1.708h-.002z"/></symbol><symbol id="basket" viewBox="0 0 32 32"><path d="M31.12 6.072c-.593-.678-1.439-1.051-2.381-1.051h-7.112V.938A.938.938 0 0020.689 0h-5.021a.938.938 0 00-.938.938v4.083H5.96l-.229-1.719C5.484 1.45 4.195 0 2.796 0H1.122a.938.938 0 000 1.876h1.674c.301 0 .938.636 1.076 1.675l2.684 20.127c.118.887.574 1.718 1.283 2.339a3.864 3.864 0 001.774.891l.025.004a3.339 3.339 0 00-.416 1.625v.012-.001.005c0 1.901 1.547 3.448 3.448 3.448s3.448-1.547 3.448-3.448v-.007c0-.579-.144-1.124-.399-1.602l.009.018.009.019h4.913c-.24.456-.381.997-.381 1.57v.003c0 1.901 1.547 3.448 3.448 3.448s3.448-1.547 3.448-3.448c0-.566-.138-1.101-.381-1.573h2.456a.938.938 0 000-1.876H10.328c-.916 0-1.792-.767-1.913-1.675l-.196-1.471H26.73c.895 0 1.779-.342 2.488-.963s1.165-1.452 1.284-2.339l1.345-10.085c.125-.934-.134-1.822-.727-2.499zm-16.874 22.48c0 .867-.706 1.573-1.573 1.573s-1.573-.706-1.573-1.573.706-1.573 1.573-1.573 1.573.706 1.573 1.573zm11.046 0c0 .867-.706 1.573-1.573 1.573s-1.573-.706-1.573-1.573.706-1.573 1.573-1.573 1.573.706 1.573 1.573zM16.607 1.875h3.146v9.104c0 .518.42.938.938.938h.331l-2.785 2.763-2.785-2.763h.219c.518 0 .937-.42.937-.938zm13.382 6.448l-1.344 10.086c-.121.908-.997 1.675-1.913 1.675H7.971L6.213 6.896h8.52v3.146h-1.558a.937.937 0 00-.861.568l-.002.006-.002.006a.93.93 0 00.206 1.022l5.061 5.021c.169.169.402.273.66.273s.491-.104.66-.273l5.061-5.021a.931.931 0 00.202-1.035l.002.006.002.006a.942.942 0 00-.867-.58h-1.669V6.895h7.112c.394 0 .738.146.97.411s.331.626.279 1.016z"/></symbol><symbol id="arrows" viewBox="0 0 32 32"><path d="M26.012 12.829a.791.791 0 001.121-.005l4.635-4.675a.792.792 0 00-.002-1.12L27.13 2.394a.793.793 0 10-1.122 1.122l3.281 3.281h-4.767a7.157 7.157 0 00-5.675 2.804l-.012.017-.013.017-3.848 5.096-3.848-5.096a7.172 7.172 0 00-5.698-2.839H.791a.794.794 0 000 1.588h4.634a5.566 5.566 0 014.414 2.181l.01.013.01.013 4.12 5.457-4.12 5.457a5.58 5.58 0 01-4.432 2.208H.791a.793.793 0 100 1.588h4.634a7.157 7.157 0 005.675-2.804l.012-.017.013-.017 3.848-5.096 3.848 5.096a7.172 7.172 0 005.698 2.839h4.769l-3.281 3.281a.792.792 0 00-.205.78l-.001-.006-.001-.006a.797.797 0 001.331.354l4.635-4.636a.79.79 0 00.003-1.12l-4.636-4.675a.79.79 0 00-.78-.213l.006-.001.006-.001a.796.796 0 00-.359 1.334l3.294 3.322h-4.778a5.566 5.566 0 01-4.414-2.181l-.01-.013-.01-.013-4.12-5.457 4.12-5.457a5.58 5.58 0 014.432-2.208h4.78l-3.294 3.322a.792.792 0 00.005 1.122z"/></symbol></defs></svg>