<svg aria-hidden="true" style="position: absolute; width: 0; height: 0; overflow: hidden;" version="1.1" xmlns="http://www.w3.org/2000/svg" xmlns:xlink="http://www.w3.org/1999/xlink">
<defs>
<symbol id="settings" viewBox="0 0 32 32">
<title>settings</title>
<path d="M17.004 32h-2.008c-1.626-0.002-2.944-1.32-2.946-2.946v-0.679c-0.806-0.259-1.493-0.552-2.146-0.901l0.069 0.034 0.071 0.034-0.482 0.482c-0.533 0.533-1.27 0.863-2.083 0.863s-1.55-0.33-2.083-0.863l-1.419-1.419c-0.533-0.533-0.863-1.27-0.863-2.084s0.33-1.55 0.863-2.084l0.481-0.481c-0.289-0.537-0.562-1.17-0.782-1.828l-0.025-0.087-0.026-0.091h-0.679c-1.626-0.002-2.944-1.32-2.946-2.946v-2.008c0.002-1.626 1.32-2.944 2.946-2.946h0.679c0.252-0.78 0.534-1.444 0.867-2.077l-0.034 0.071-0.482-0.481c-0.533-0.533-0.863-1.27-0.863-2.083s0.33-1.55 0.863-2.083l1.42-1.42c0.533-0.533 1.27-0.863 2.083-0.863s1.55 0.33 2.084 0.863l0.481 0.481c0.537-0.289 1.17-0.562 1.828-0.782l0.087-0.025 0.091-0.026v-0.679c0.002-1.626 1.32-2.944 2.946-2.946h2.008c1.626 0.002 2.944 1.32 2.946 2.946v0.679c0.78 0.252 1.444 0.534 2.077 0.867l-0.071-0.034 0.482-0.482c0.533-0.533 1.27-0.863 2.084-0.863s1.55 0.33 2.084 0.863l1.419 1.419c0.533 0.533 0.863 1.27 0.863 2.083s-0.33 1.55-0.863 2.083l-0.481 0.481c0.299 0.562 0.581 1.226 0.807 1.915l0.026 0.091h0.679c1.626 0.002 2.944 1.32 2.946 2.946v2.008c-0.002 1.626-1.32 2.944-2.946 2.946h-0.679c-0.252 0.78-0.534 1.444-0.867 2.077l0.034-0.071 0.482 0.482c0.533 0.533 0.863 1.27 0.863 2.084s-0.33 1.55-0.863 2.084v0l-1.42 1.419c-0.533 0.533-1.269 0.863-2.083 0.863s-1.55-0.33-2.083-0.863l-0.481-0.481c-0.562 0.299-1.226 0.581-1.915 0.807l-0.091 0.026v0.679c-0.002 1.626-1.32 2.944-2.946 2.946h-0zM10.357 25.573c0.824 0.497 1.777 0.904 2.787 1.172l0.077 0.017c0.407 0.108 0.703 0.474 0.703 0.908v1.384c0 0.59 0.48 1.071 1.071 1.071h2.008c0.59 0 1.071-0.48 1.071-1.071v-1.384c0-0.434 0.296-0.8 0.697-0.906l0.007-0.001c1.106-0.289 2.076-0.706 2.964-1.245l-0.049 0.028-0.050 0.028c0.137-0.083 0.301-0.131 0.478-0.131 0.259 0 0.493 0.105 0.662 0.275l0 0 0.98 0.981c0.194 0.194 0.461 0.314 0.757 0.314s0.563-0.12 0.757-0.314v0l1.42-1.42c0.194-0.194 0.314-0.461 0.314-0.757s-0.12-0.563-0.314-0.757v0l-0.981-0.981c-0.17-0.169-0.276-0.404-0.276-0.663 0-0.178 0.050-0.344 0.136-0.486l-0.002 0.004-0.002 0.004c0.497-0.824 0.904-1.777 1.172-2.787l0.017-0.077c0.108-0.407 0.474-0.703 0.908-0.703h1.384c0.59 0 1.071-0.48 1.071-1.071v-2.008c0-0.59-0.48-1.071-1.071-1.071h-1.384c-0.432-0-0.796-0.293-0.904-0.69l-0.002-0.007-0.001-0.007c-0.289-1.106-0.706-2.076-1.245-2.964l0.028 0.049 0.028 0.050c-0.083-0.136-0.131-0.301-0.131-0.478 0-0.259 0.105-0.493 0.275-0.662l0.981-0.981c0.194-0.194 0.314-0.461 0.314-0.757s-0.12-0.563-0.314-0.757v0l-1.42-1.42c-0.194-0.194-0.461-0.314-0.757-0.314s-0.563 0.12-0.757 0.314v0l-0.981 0.981c-0.169 0.17-0.404 0.276-0.663 0.276-0.178 0-0.345-0.050-0.486-0.136l0.004 0.002 0.004 0.002c-0.802-0.488-1.729-0.889-2.711-1.155l-0.076-0.017-0.077-0.017c-0.407-0.108-0.703-0.474-0.703-0.908v-1.384c0-0.59-0.48-1.071-1.071-1.071h-2.008c-0.59 0-1.071 0.48-1.071 1.071v1.384c0 0.434-0.296 0.8-0.697 0.906l-0.007 0.001c-1.087 0.285-2.040 0.692-2.915 1.217l0.050-0.028c-0.136 0.083-0.301 0.131-0.478 0.131-0.259 0-0.493-0.105-0.662-0.275l-0-0-0.98-0.981c-0.194-0.194-0.461-0.314-0.757-0.314s-0.563 0.12-0.757 0.314v0l-1.42 1.42c-0.194 0.194-0.314 0.461-0.314 0.757s0.12 0.563 0.314 0.757v0l0.981 0.981c0.17 0.169 0.276 0.404 0.276 0.663 0 0.178-0.050 0.344-0.136 0.486l0.002-0.004 0.002-0.004c-0.488 0.802-0.889 1.729-1.155 2.711l-0.017 0.076-0.017 0.077c-0.108 0.407-0.474 0.703-0.908 0.703h-1.384c-0.59 0-1.071 0.48-1.071 1.071v2.008c0 0.59 0.48 1.071 1.071 1.071h1.384c0.434 0 0.8 0.296 0.906 0.697l0.001 0.007c0.285 1.087 0.692 2.040 1.217 2.915l-0.028-0.050c0.083 0.137 0.131 0.301 0.131 0.478 0 0.259-0.105 0.493-0.275 0.662l-0.981 0.981c-0.194 0.194-0.314 0.461-0.314 0.757s0.12 0.563 0.314 0.757v0l1.42 1.42c0.194 0.194 0.461 0.314 0.757 0.314s0.563-0.12 0.757-0.314v0l0.981-0.981c0.223-0.223 0.687-0.412 1.14-0.144z"></path>
<path d="M16 22.962c-3.839 0-6.963-3.123-6.963-6.963s3.123-6.963 6.963-6.963 6.962 3.123 6.962 6.963-3.123 6.963-6.963 6.963zM16 10.912c-2.805 0-5.088 2.282-5.088 5.088s2.282 5.087 5.088 5.087 5.087-2.282 5.087-5.088-2.282-5.088-5.088-5.088z"></path>
</symbol>
<symbol id="safe" viewBox="0 0 32 32">
<title>safe</title>
<path d="M27.313 0h-22.625c-2.588 0.003-4.685 2.1-4.688 4.688v20.75c0.003 2.588 2.1 4.685 4.688 4.688h0v1.875h3.75v-1.875h15.125v1.875h3.75v-1.875c2.588-0.003 4.685-2.1 4.688-4.688v-20.75c-0.003-2.588-2.1-4.685-4.688-4.688h-0zM30.125 25.438c-0.002 1.553-1.26 2.811-2.813 2.813h-22.625c-1.553-0.002-2.811-1.26-2.813-2.813v-20.75c0.002-1.553 1.26-2.811 2.813-2.813h22.625c1.553 0.002 2.811 1.26 2.813 2.813v20.75z"></path>
<path d="M3.75 3.75v22.625h24.5v-22.625h-24.5zM26.375 24.5h-20.75v-18.875h20.75v18.875z"></path>
<path d="M19.5 13.813c-0.689 0-1.25 0.561-1.25 1.25s0.561 1.25 1.25 1.25 1.25-0.561 1.25-1.25-0.561-1.25-1.25-1.25z"></path>
<path d="M19.5 10.063c-2.757 0-5 2.243-5 5s2.243 5 5 5 5-2.243 5-5-2.243-5-5-5zM19.5 18.188c-1.723 0-3.125-1.402-3.125-3.125s1.402-3.125 3.125-3.125 3.125 1.402 3.125 3.125-1.402 3.125-3.125 3.125zM8.813 8.5h1.875v13.125h-1.875z"></path>
</symbol>
<symbol id="phone" viewBox="0 0 32 32">
<title>phone</title>
<path d="M29.432 21.004c-1.959 0-3.883-0.306-5.706-0.909-0.909-0.31-1.944-0.069-2.537 0.535l-3.598 2.716c-4.173-2.227-6.743-4.797-8.94-8.938l2.636-3.504c0.469-0.468 0.76-1.115 0.76-1.831 0-0.282-0.045-0.554-0.129-0.809l0.005 0.018c-0.578-1.698-0.912-3.654-0.912-5.688 0-0.010 0-0.019 0-0.029v0.001c-0.001-1.418-1.15-2.567-2.568-2.568h-5.877c-1.418 0.001-2.567 1.15-2.568 2.568v0c0 16.229 13.203 29.432 29.432 29.432 1.418-0.001 2.567-1.15 2.568-2.568v-5.86c-0.001-1.418-1.15-2.567-2.568-2.568h-0zM30.222 29.432c0 0.436-0.354 0.79-0.79 0.79v0c-15.249 0-27.654-12.405-27.654-27.654 0-0.436 0.354-0.79 0.79-0.79v0h5.877c0.436 0 0.79 0.354 0.79 0.79v0c0 2.15 0.338 4.26 0.998 6.26 0.092 0.295 0.017 0.601-0.281 0.912l-3.056 4.047c-0.113 0.147-0.181 0.333-0.181 0.535 0 0.149 0.037 0.289 0.102 0.412l-0.002-0.005-0.002-0.005c2.494 4.902 5.524 7.932 10.461 10.462 0.3 0.157 0.668 0.124 0.941-0.082l4.14-3.136c0.142-0.142 0.338-0.229 0.554-0.229 0.092 0 0.18 0.016 0.262 0.045l-0.006-0.002-0.006-0.002c1.864 0.635 4.011 1.002 6.245 1.002 0.010 0 0.020 0 0.030-0h-0.002c0.436 0 0.79 0.354 0.79 0.79v0 5.86z"></path>
</symbol>
<symbol id="mail" viewBox="0 0 32 32">
<title>mail</title>
<path d="M29 4h-26c-1.654 0-3 1.346-3 3v18c0 1.654 1.346 3 3 3h26c1.654 0 3-1.346 3-3v-18c0-1.654-1.346-3-3-3zM29 6c0.136 0 0.265 0.028 0.383 0.077l-13.383 11.599-13.383-11.599c0.112-0.049 0.242-0.077 0.379-0.077 0.002 0 0.003 0 0.004 0h-0zM29 26h-26c-0.552 0-1-0.448-1-1v0-16.81l13.345 11.565c0.174 0.152 0.404 0.245 0.655 0.245s0.481-0.093 0.656-0.246l-0.001 0.001 13.345-11.565v16.81c0 0.552-0.448 1-1 1v0z"></path>
</symbol>
<symbol id="heart" viewBox="0 0 32 32">
<title>heart</title>
<path d="M16 30.22c-0.456 0-0.895-0.165-1.237-0.465-0.742-0.657-1.926-1.68-3.117-2.695l-0.528-0.44c-3.224-2.747-6.008-5.12-7.945-7.457-2.165-2.613-3.174-5.090-3.174-7.796 0-2.629 0.902-5.055 2.539-6.831 1.657-1.797 3.929-2.786 6.401-2.786 1.847 0 3.539 0.584 5.028 1.736 0.778 0.612 1.448 1.311 2.012 2.092l0.021 0.030c0.6-0.83 1.281-1.541 2.033-2.123 1.489-1.152 3.181-1.736 5.028-1.736 2.471 0 4.744 0.99 6.401 2.786 1.637 1.776 2.538 4.201 2.538 6.831 0 2.706-1.008 5.184-3.174 7.796-1.937 2.337-4.721 4.71-7.944 7.457-1.102 0.939-2.35 2.002-3.645 3.136-0.327 0.288-0.76 0.464-1.233 0.464-0.001 0-0.002 0-0.003 0h-0.001zM8.939 3.624c-1.942 0-3.725 0.775-5.023 2.182-1.317 1.428-2.042 3.403-2.042 5.56 0 2.276 0.846 4.312 2.743 6.6 1.833 2.212 4.56 4.536 7.717 7.227l0.006 0.005c1.104 0.941 2.355 2.007 3.657 3.146 0.675-0.598 1.869-1.628 3.069-2.651l0.6-0.5c3.157-2.691 5.884-5.014 7.717-7.226 1.896-2.289 2.742-4.324 2.742-6.6 0-2.157-0.725-4.132-2.042-5.56-1.297-1.407-3.081-2.182-5.023-2.182-1.422 0-2.728 0.452-3.881 1.344-1.028 0.795-1.743 1.8-2.163 2.503-0.216 0.362-0.596 0.577-1.016 0.577s-0.801-0.216-1.016-0.577c-0.419-0.703-1.135-1.708-2.163-2.503-1.153-0.892-2.459-1.344-3.881-1.344z"></path>
</symbol>
<symbol id="globe" viewBox="0 0 32 32">
<title>globe</title>
<path d="M16 0c-8.822 0-16 7.178-16 16s7.178 16 16 16 16-7.178 16-16-7.178-16-16-16zM15.063 7.854c-1.519-0.066-2.953-0.277-4.336-0.619l0.15 0.031c0.215-0.51 0.449-1 0.701-1.465 1.034-1.905 2.303-3.241 3.485-3.726zM15.063 9.73v5.332h-5.856c0.085-2.18 0.453-4.242 1.069-6.194l-0.045 0.167c1.427 0.374 3.083 0.623 4.786 0.693l0.046 0.002zM15.063 16.938v5.332c-1.749 0.072-3.405 0.321-4.997 0.73l0.165-0.036c-0.57-1.785-0.938-3.847-1.023-5.982l-0.001-0.045zM15.063 24.146v5.778c-1.183-0.484-2.452-1.821-3.485-3.726-0.214-0.383-0.449-0.864-0.66-1.358l-0.041-0.107c1.232-0.31 2.667-0.521 4.139-0.586l0.047-0.002zM16.938 24.146c1.426 0.061 2.838 0.262 4.186 0.588-0.215 0.51-0.449 1-0.701 1.465-1.034 1.905-2.303 3.241-3.485 3.726zM16.938 22.27v-5.332h5.856c-0.085 2.18-0.453 4.242-1.069 6.194l0.045-0.167c-1.427-0.374-3.083-0.623-4.785-0.692l-0.047-0.002zM16.938 15.063v-5.332c1.75-0.072 3.405-0.321 4.997-0.73l-0.165 0.036c0.57 1.785 0.938 3.847 1.023 5.982l0.001 0.045zM16.938 7.854v-5.778c1.183 0.484 2.452 1.821 3.485 3.726 0.252 0.464 0.486 0.954 0.701 1.465-1.348 0.326-2.76 0.526-4.186 0.588zM22.071 4.907c-0.468-0.866-0.971-1.612-1.537-2.305l0.020 0.026c1.94 0.675 3.606 1.69 5.009 2.987l-0.009-0.009c-0.814 0.436-1.692 0.815-2.615 1.132-0.306-0.745-0.597-1.347-0.918-1.93l0.050 0.099zM9.929 4.907c-0.271 0.484-0.562 1.086-0.821 1.705l-0.047 0.126c-1.021-0.35-1.885-0.733-2.709-1.179l0.094 0.047c1.394-1.287 3.060-2.302 4.901-2.948l0.099-0.030c-0.547 0.667-1.050 1.413-1.48 2.204l-0.037 0.075zM8.427 8.5c-0.622 1.947-1.017 4.193-1.096 6.52l-0.001 0.042h-5.423c0.209-3.088 1.385-5.868 3.224-8.075l-0.018 0.023c0.941 0.547 2.035 1.051 3.179 1.449l0.135 0.041zM7.33 16.938c0.080 2.369 0.475 4.615 1.145 6.74l-0.048-0.178c-1.279 0.439-2.373 0.943-3.407 1.539l0.093-0.049c-1.821-2.184-2.997-4.964-3.204-8.009l-0.002-0.043zM9.061 25.262c0.262 0.636 0.552 1.248 0.868 1.831 0.47 0.865 0.979 1.628 1.517 2.279-1.94-0.675-3.606-1.69-5.010-2.987l0.010 0.009c0.73-0.399 1.594-0.782 2.49-1.094l0.125-0.038zM22.071 27.093c0.316-0.583 0.606-1.195 0.868-1.831 0.923 0.317 1.801 0.696 2.615 1.132-1.394 1.287-3.060 2.302-4.901 2.948l-0.099 0.030c0.547-0.667 1.050-1.413 1.48-2.204l0.037-0.075zM23.573 23.5c0.622-1.947 1.017-4.193 1.096-6.52l0.001-0.042h5.423c-0.209 3.088-1.385 5.868-3.224 8.075l0.018-0.023c-0.941-0.547-2.035-1.050-3.179-1.449l-0.135-0.041zM24.67 15.063c-0.080-2.369-0.475-4.615-1.145-6.74l0.048 0.178c1.279-0.439 2.373-0.943 3.407-1.539l-0.093 0.049c1.821 2.184 2.997 4.964 3.204 8.009l0.002 0.043z"></path>
</symbol>
<symbol id="forward" viewBox="0 0 32 32">
<title>forward</title>
<path d="M31.622 14.772c-0.079-0.118-0.158-0.237-0.276-0.315-0.094-0.102-0.197-0.192-0.309-0.272l-0.006-0.004-12.656-8.714c-0.513-0.355-1.065-0.434-1.617-0.355-0.552 0.118-1.065 0.394-1.38 0.907-0.118 0.197-0.237 0.394-0.276 0.591-0.039 0.158-0.079 0.315-0.079 0.473v6.387l-11.671-8.004c-0.513-0.355-1.065-0.434-1.617-0.355-0.552 0.118-1.065 0.394-1.38 0.907-0.118 0.197-0.237 0.394-0.276 0.591-0.039 0.158-0.079 0.315-0.079 0.473v17.664c0 0.591 0.237 1.143 0.631 1.538s0.946 0.631 1.538 0.631c0.237 0 0.513-0.039 0.71-0.118l12.144-8.28v6.23c0 0.591 0.237 1.143 0.631 1.538s0.946 0.631 1.538 0.631c0.237 0 0.513-0.039 0.71-0.118 0.237-0.079 0.434-0.197 0.591-0.355l12.578-8.674c0.513-0.355 0.789-0.867 0.907-1.38 0.016-0.102 0.025-0.219 0.025-0.338 0-0.476-0.142-0.918-0.385-1.288l0.005 0.009zM14.864 16.073l-12.617 8.714c-0.039 0-0.039 0.039-0.079 0.039h-0.079c-0.039 0-0.079 0-0.079-0.039-0.039-0.039-0.039-0.039-0.039-0.079v-17.546c0-0.039 0.039-0.039 0.079-0.039h0.079l12.656 8.753c0 0.039 0.039 0.079 0 0.079 0.118 0.079 0.079 0.118 0.079 0.118zM29.887 16.073l-12.578 8.714c-0.039 0-0.039 0.039-0.079 0.039h-0.079c-0.039 0-0.079 0-0.079-0.039-0.039-0.039-0.039-0.039-0.039-0.079v-17.546c0-0.039 0.039-0.039 0.079-0.039h0.079l6.348 4.377 6.309 4.377c0 0.039 0.039 0.079 0 0.079 0.079 0.079 0.079 0.118 0.039 0.118z"></path>
</symbol>
<symbol id="compass" viewBox="0 0 32 32">
<title>compass</title>
<path d="M14.259 16.641l-3.483 6.963 6.966-3.48 3.482-6.964-6.964 3.482zM16.824 19.205l-3.294 1.646 1.647-3.293 3.294-1.646-1.647 3.293z"></path>
<path d="M16 8.618c-5.435 0-9.84 4.406-9.84 9.84s4.406 9.84 9.84 9.84 9.84-4.406 9.84-9.84c0-5.435-4.406-9.84-9.84-9.84zM16 27.067c-4.747 0-8.609-3.862-8.609-8.609s3.862-8.609 8.609-8.609 8.609 3.862 8.609 8.609-3.862 8.609-8.609 8.609z"></path>
<path d="M18.279 5.123c0.494-0.537 0.797-1.255 0.799-2.045v-0c0-1.7-1.378-3.078-3.078-3.078s-3.078 1.378-3.078 3.078v0c0 0.79 0.308 1.502 0.799 2.045-6.392 1.085-11.263 6.634-11.263 13.335 0 7.479 6.063 13.542 13.542 13.542s13.542-6.063 13.542-13.542c0-6.701-4.871-12.251-11.263-13.335zM16 1.231c1.019 0.002 1.845 0.828 1.847 1.847v0c0 1-0.799 1.811-1.791 1.841l-0.055-0.002-0.055 0.002c-0.994-0.030-1.789-0.842-1.791-1.841v-0c0.002-1.019 0.828-1.845 1.847-1.847h0zM16 30.769c-6.788 0-12.311-5.523-12.311-12.311s5.523-12.311 12.311-12.311 12.311 5.523 12.311 12.311-5.523 12.311-12.311 12.311z"></path>
</symbol>
<symbol id="clock" viewBox="0 0 32 32">
<title>clock</title>
<path d="M16 32c-8.823 0-16-7.177-16-16s7.177-16 16-16 16 7.177 16 16-7.177 16-16 16zM16 2c-7.72 0-14 6.28-14 14s6.28 14 14 14 14-6.28 14-14-6.28-14-14-14z"></path>
<path d="M23 24.667h-0.002c-0.001 0-0.001 0-0.002 0-0.275 0-0.523-0.112-0.702-0.293l-7-7c-0.181-0.18-0.293-0.43-0.293-0.706 0-0 0-0 0-0v0-9.334c0-0.552 0.448-1 1-1s1 0.448 1 1v0 8.919l6.707 6.707c0.181 0.181 0.294 0.431 0.294 0.708 0 0.552-0.446 0.999-0.998 1h-0.002z"></path>
</symbol>
<symbol id="basket" viewBox="0 0 32 32">
<title>basket</title>
<path d="M31.12 6.072c-0.593-0.678-1.439-1.051-2.381-1.051h-7.112v-4.083c0-0.518-0.42-0.938-0.938-0.938h-5.021c-0.518 0-0.938 0.42-0.938 0.938v0 4.083h-8.77l-0.229-1.719c-0.247-1.852-1.536-3.302-2.935-3.302h-1.674c-0.518 0-0.938 0.42-0.938 0.938s0.42 0.938 0.938 0.938v0h1.674c0.301 0 0.938 0.636 1.076 1.675l2.684 20.127c0.118 0.887 0.574 1.718 1.283 2.339 0.492 0.436 1.101 0.751 1.774 0.891l0.025 0.004c-0.262 0.469-0.416 1.029-0.416 1.625 0 0.004 0 0.008 0 0.012v-0.001 0.005c0 1.901 1.547 3.448 3.448 3.448s3.448-1.547 3.448-3.448v-0.002c0-0.002 0-0.003 0-0.005 0-0.579-0.144-1.124-0.399-1.602l0.009 0.018 0.009 0.019h4.913c-0.24 0.456-0.381 0.997-0.381 1.57v0.003c0 1.901 1.547 3.448 3.448 3.448s3.448-1.547 3.448-3.448c0-0.566-0.138-1.101-0.381-1.573h2.456c0.518 0 0.938-0.42 0.938-0.938s-0.42-0.938-0.938-0.938v0h-18.912c-0.916 0-1.792-0.767-1.913-1.675l-0.196-1.471h18.511c0.895 0 1.779-0.342 2.488-0.963s1.165-1.452 1.284-2.339l1.345-10.085c0.125-0.934-0.134-1.822-0.727-2.499zM14.246 28.552c0 0.867-0.706 1.573-1.573 1.573s-1.573-0.706-1.573-1.573 0.706-1.573 1.573-1.573 1.573 0.706 1.573 1.573zM25.292 28.552c0 0.867-0.706 1.573-1.573 1.573s-1.573-0.706-1.573-1.573 0.706-1.573 1.573-1.573 1.573 0.706 1.573 1.573zM16.607 1.875h3.146v9.104c0 0.518 0.42 0.938 0.938 0.938h0.331l-2.785 2.763-2.785-2.763h0.219c0.518 0 0.937-0.42 0.937-0.938zM29.989 8.323l-1.344 10.086c-0.121 0.908-0.997 1.675-1.913 1.675h-18.761l-1.758-13.188h8.52v3.146h-1.558c-0 0-0 0-0 0-0.386 0-0.718 0.234-0.861 0.568l-0.002 0.006-0.002 0.006c-0.045 0.106-0.071 0.229-0.071 0.358 0 0.26 0.106 0.495 0.277 0.664l0 0 5.061 5.021c0.169 0.169 0.402 0.273 0.66 0.273s0.491-0.104 0.66-0.273l-0 0 5.061-5.021c0.172-0.17 0.278-0.405 0.278-0.665 0-0.131-0.027-0.257-0.076-0.37l0.002 0.006 0.002 0.006c-0.145-0.343-0.478-0.579-0.867-0.58h-1.669v-3.146h7.112c0.394 0 0.738 0.146 0.97 0.411s0.331 0.626 0.279 1.016z"></path>
</symbol>
<symbol id="arrows" viewBox="0 0 32 32">
<title>arrows</title>
<path d="M26.012 12.829c0.143 0.142 0.341 0.23 0.558 0.23 0.22 0 0.42-0.090 0.563-0.235l0-0 4.635-4.675c0.142-0.143 0.231-0.341 0.231-0.559s-0.089-0.417-0.233-0.561l-4.636-4.635c-0.144-0.144-0.342-0.232-0.561-0.232-0.438 0-0.793 0.355-0.793 0.793 0 0.219 0.089 0.417 0.232 0.561v0l3.281 3.281h-4.767c-2.312 0.004-4.367 1.102-5.675 2.804l-0.012 0.017-0.013 0.017-3.848 5.096-3.848-5.096c-1.32-1.728-3.38-2.833-5.698-2.839h-4.637c-0.439 0-0.794 0.356-0.794 0.794s0.355 0.794 0.794 0.794h4.634c1.798 0.003 3.397 0.857 4.414 2.181l0.010 0.013 0.010 0.013 4.12 5.457-4.12 5.457c-1.027 1.344-2.629 2.203-4.432 2.208h-4.636c-0.439 0-0.794 0.355-0.794 0.794s0.355 0.794 0.794 0.794h4.634c2.312-0.004 4.367-1.102 5.675-2.804l0.012-0.017 0.013-0.017 3.848-5.096 3.848 5.096c1.32 1.728 3.38 2.833 5.698 2.839h4.769l-3.281 3.281c-0.145 0.144-0.235 0.343-0.235 0.564 0 0.075 0.010 0.147 0.030 0.216l-0.001-0.006-0.001-0.006c0.094 0.341 0.402 0.588 0.768 0.588 0.22 0 0.419-0.090 0.563-0.234l4.635-4.636c0.144-0.144 0.233-0.342 0.233-0.561 0-0.218-0.088-0.415-0.23-0.559l0 0-4.636-4.675c-0.144-0.149-0.346-0.242-0.569-0.242-0.073 0-0.144 0.010-0.211 0.029l0.006-0.001 0.006-0.001c-0.345 0.092-0.595 0.401-0.595 0.769 0 0.221 0.090 0.421 0.236 0.565l0 0 3.294 3.322h-4.778c-1.798-0.003-3.397-0.857-4.414-2.181l-0.010-0.013-0.010-0.013-4.12-5.457 4.12-5.457c1.027-1.344 2.629-2.203 4.432-2.208h4.78l-3.294 3.322c-0.142 0.143-0.23 0.341-0.23 0.559 0 0.22 0.090 0.42 0.235 0.563l0 0z"></path>
</symbol>
</defs>
</svg>
